<?xml version="1.0" encoding="UTF-8"?>
<svg id="Capa_2" data-name="Capa 2" xmlns="http://www.w3.org/2000/svg" viewBox="0 0 32 21.43">
  <defs>
    <style>
      .cls-1 {
        fill: #fff;
      }
    </style>
  </defs>
  <g id="Capa_1-2" data-name="Capa 1">
    <path class="cls-1" d="M30.21,17.85h-5.25c1.44-1.93,2.22-4.25,2.22-6.68,0-6.16-5.01-11.17-11.17-11.17S4.83,5.01,4.83,11.17c0,2.42.78,4.75,2.22,6.68H1.79c-.99,0-1.79.8-1.79,1.79s.8,1.79,1.79,1.79h10.16s.03,0,.05,0c.03,0,.07,0,.1,0,.02,0,.05,0,.08,0,.03,0,.06,0,.09-.01.03,0,.06-.01.08-.02.03,0,.05-.01.08-.02.03,0,.06-.02.09-.03.02,0,.04-.01.07-.03.03-.01.06-.02.09-.04.02-.01.05-.02.07-.03.03-.01.05-.03.08-.04.03-.02.05-.03.08-.05.02-.01.04-.03.06-.04.03-.02.05-.04.09-.06.02-.01.03-.03.05-.04.03-.02.05-.05.09-.08.01-.01.03-.03.04-.04.02-.02.05-.05.07-.08.02-.02.03-.04.05-.06.02-.02.04-.05.05-.07.02-.02.03-.05.05-.08.01-.02.03-.04.04-.06.02-.03.03-.05.05-.08l.02-.03s.01-.03.02-.05c.01-.03.03-.06.04-.09,0-.02.02-.04.03-.07.01-.03.02-.06.03-.09,0-.03.01-.05.02-.08,0-.03.01-.05.02-.08,0-.03.01-.06.02-.1,0-.02,0-.05,0-.07,0-.03,0-.07,0-.1v-.04s0-.03,0-.05c0-.03,0-.06,0-.1,0-.03,0-.05,0-.08,0-.03,0-.06-.01-.09,0-.03-.01-.06-.02-.09,0-.02-.01-.05-.02-.07,0-.03-.02-.07-.03-.1,0-.02-.01-.04-.02-.07-.01-.03-.03-.07-.04-.09,0-.02-.02-.04-.03-.07-.01-.03-.03-.06-.05-.09-.01-.02-.03-.05-.05-.08-.01-.02-.03-.04-.04-.06-.02-.03-.04-.05-.06-.08-.01-.02-.03-.04-.04-.05-.02-.03-.04-.05-.07-.07-.02-.02-.03-.03-.05-.05-.02-.02-.05-.05-.07-.07-.02-.02-.04-.03-.06-.05-.02-.02-.05-.04-.07-.05-.03-.02-.05-.04-.08-.06-.02-.01-.04-.03-.06-.04-.03-.02-.06-.03-.09-.05l-.04-.02c-2.62-1.26-4.31-3.95-4.31-6.85,0-4.19,3.41-7.59,7.59-7.59s7.59,3.41,7.59,7.59c0,2.86-1.66,5.53-4.22,6.81-.67.27-1.12.93-1.12,1.66,0,.98.79,1.78,1.77,1.79h.03s10.15,0,10.15,0c.99,0,1.79-.8,1.79-1.79s-.8-1.79-1.79-1.79Z"/>
  </g>
</svg>