<?xml version="1.0" encoding="UTF-8"?>
<svg id="Capa_2" data-name="Capa 2" xmlns="http://www.w3.org/2000/svg" xmlns:xlink="http://www.w3.org/1999/xlink" viewBox="0 0 850 280.2">
  <defs>
    <style>
      .cls-1 {
        fill: url(#linear-gradient);
      }

      .cls-2 {
        fill: url(#Degradado_sin_nombre_64-7);
      }

      .cls-3 {
        fill: url(#Degradado_sin_nombre_64-6);
      }

      .cls-4 {
        fill: url(#Degradado_sin_nombre_64-5);
      }

      .cls-5 {
        fill: url(#Degradado_sin_nombre_64-4);
      }

      .cls-6 {
        fill: url(#Degradado_sin_nombre_64-3);
      }

      .cls-7 {
        fill: url(#Degradado_sin_nombre_64-2);
      }

      .cls-8 {
        fill: #fff;
      }

      .cls-9 {
        fill: #3d83a4;
      }

      .cls-10 {
        fill: url(#Degradado_sin_nombre_86);
      }

      .cls-11 {
        fill: url(#Degradado_sin_nombre_64);
      }
    </style>
    <radialGradient id="Degradado_sin_nombre_86" data-name="Degradado sin nombre 86" cx="529.3" cy="-58.89" fx="529.3" fy="-58.89" r="328.77" gradientTransform="translate(-21.14 193.82) scale(.84 .9)" gradientUnits="userSpaceOnUse">
      <stop offset="0" stop-color="#a98c60"/>
      <stop offset=".15" stop-color="#a98c60"/>
      <stop offset=".37" stop-color="#c4aa7d"/>
      <stop offset=".61" stop-color="#dfc99a"/>
      <stop offset=".72" stop-color="#ecd7a9"/>
      <stop offset=".84" stop-color="#dfc99a"/>
      <stop offset="1" stop-color="#a98c60"/>
    </radialGradient>
    <linearGradient id="Degradado_sin_nombre_64" data-name="Degradado sin nombre 64" x1="285.51" y1="106.32" x2="285.51" y2="173.67" gradientUnits="userSpaceOnUse">
      <stop offset="0" stop-color="#3d83a4"/>
      <stop offset=".14" stop-color="#3b82a5"/>
      <stop offset=".89" stop-color="#0e5389"/>
    </linearGradient>
    <linearGradient id="Degradado_sin_nombre_64-2" data-name="Degradado sin nombre 64" x1="360.45" y1="105.09" x2="360.45" y2="174.8" xlink:href="#Degradado_sin_nombre_64"/>
    <linearGradient id="Degradado_sin_nombre_64-3" data-name="Degradado sin nombre 64" x1="422.2" x2="422.2" xlink:href="#Degradado_sin_nombre_64"/>
    <linearGradient id="Degradado_sin_nombre_64-4" data-name="Degradado sin nombre 64" x1="494.44" y1="104.7" x2="494.44" y2="191.56" xlink:href="#Degradado_sin_nombre_64"/>
    <linearGradient id="Degradado_sin_nombre_64-5" data-name="Degradado sin nombre 64" x1="586.02" x2="586.02" y2="174.89" xlink:href="#Degradado_sin_nombre_64"/>
    <linearGradient id="Degradado_sin_nombre_64-6" data-name="Degradado sin nombre 64" x1="655.32" x2="655.32" xlink:href="#Degradado_sin_nombre_64"/>
    <linearGradient id="Degradado_sin_nombre_64-7" data-name="Degradado sin nombre 64" x1="717.46" y1="105.09" x2="717.46" y2="174.8" xlink:href="#Degradado_sin_nombre_64"/>
    <linearGradient id="linear-gradient" x1="204.88" y1="170.56" x2="116.99" y2="109.02" gradientUnits="userSpaceOnUse">
      <stop offset="0" stop-color="#a98c60"/>
      <stop offset=".15" stop-color="#a98c60"/>
      <stop offset=".37" stop-color="#c4aa7d"/>
      <stop offset=".61" stop-color="#dfc99a"/>
      <stop offset=".72" stop-color="#ecd7a9"/>
      <stop offset=".84" stop-color="#dfc99a"/>
      <stop offset="1" stop-color="#a98c60"/>
    </linearGradient>
  </defs>
  <g id="logo">
    <g>
      <rect class="cls-8" width="850" height="280.2"/>
      <g>
        <path class="cls-10" d="M803.82,237.41h-97.6c-2.05,0-3.72-1.78-3.72-3.98s1.67-3.98,3.72-3.98h93.89V51.73H51.16v177.72h93.89c2.05,0,3.72,1.78,3.72,3.98s-1.67,3.98-3.72,3.98H47.45c-2.05,0-3.72-1.78-3.72-3.98V47.75c0-2.19,1.67-3.98,3.72-3.98h756.38c2.05,0,3.72,1.78,3.72,3.98v185.67c0,2.19-1.67,3.98-3.72,3.98Z"/>
        <g>
          <path class="cls-9" d="M175.79,231.73c-.68,1.44-1.67,2.15-3.03,2.15-.56,0-1.05-.12-1.46-.35-.41-.2-.74-.46-1-.79-.3-.32-.5-.76-.61-1.3-.12-.56-.18-1.68-.18-3.3s.06-2.75.18-3.33c.1-.52.3-.94.6-1.27v-.02c.26-.31.6-.58,1.01-.79.4-.2.89-.31,1.45-.33.77.01,1.43.23,1.95.64.52.44.88.98,1.07,1.61l.06.19h3.27l-.06-.31c-.28-1.45-.98-2.69-2.06-3.68-1.09-.98-2.5-1.49-4.22-1.51-1.39.02-2.58.35-3.51.99-.95.63-1.65,1.36-2.07,2.15-.28.43-.48,1-.61,1.7-.12.68-.18,1.98-.18,3.96s.06,3.24.18,3.94c.07.38.15.7.25.96.1.23.22.48.35.74.43.81,1.14,1.54,2.08,2.14.94.64,2.12.98,3.52,1.01,1.54,0,2.9-.44,4.03-1.3,1.1-.87,1.86-2.13,2.24-3.73l.08-.33h-3.25l-.07.15Z"/>
          <polygon class="cls-9" points="185.25 236.8 196.72 236.8 196.72 233.87 188.37 233.87 188.37 229.46 195.5 229.46 195.5 226.67 188.37 226.67 188.37 222.39 196.72 222.39 196.72 219.47 185.25 219.47 185.25 236.8"/>
          <polygon class="cls-9" points="213.78 230.86 206.39 219.47 203.53 219.47 203.53 236.8 206.65 236.8 206.65 225.41 214.04 236.8 216.9 236.8 216.9 219.47 213.78 219.47 213.78 230.86"/>
          <polygon class="cls-9" points="223.21 222.26 227.91 222.26 227.91 236.8 231.03 236.8 231.03 222.26 235.73 222.26 235.73 219.47 223.21 219.47 223.21 222.26"/>
          <path class="cls-9" d="M254.3,224.43h0c-.05-1.64-.66-2.91-1.8-3.79-.95-.77-2.18-1.17-3.66-1.17h-6.96v17.33h3.12v-7.18h2.89l3.54,7.18h3.69l-4.03-7.58c2.09-.89,3.17-2.5,3.2-4.79ZM245.01,222.26h3.81c.77,0,1.35.16,1.76.47.49.34.73.9.75,1.69,0,.67-.21,1.21-.65,1.67-.43.48-1.11.73-1.99.74h-3.67v-4.58Z"/>
          <path class="cls-9" d="M272.89,222.48c-.42-.81-1.1-1.53-2.03-2.16-.95-.64-2.14-.97-3.56-.99-1.39.02-2.58.35-3.51.99-.95.63-1.65,1.35-2.07,2.15-.28.43-.48,1.01-.61,1.7-.12.68-.18,1.98-.18,3.97s.06,3.24.18,3.94c.07.38.15.7.25.96.1.23.22.48.35.74.43.81,1.14,1.54,2.08,2.14.94.64,2.12.98,3.52,1.01,1.41-.03,2.6-.37,3.54-1.01.93-.61,1.62-1.34,2.02-2.12.31-.44.53-1.02.64-1.74.1-.7.16-1.98.16-3.93s-.05-3.28-.16-3.96c-.11-.69-.33-1.26-.63-1.7ZM265.84,222.72c.4-.2.89-.31,1.45-.33.58.01,1.08.13,1.49.33.4.21.71.48.97.81.3.33.51.75.63,1.27.11.58.17,1.7.17,3.33s-.06,2.74-.17,3.31c-.12.53-.33.97-.65,1.32-.23.31-.55.57-.95.77-.41.23-.91.35-1.48.35s-1.05-.12-1.46-.35c-.41-.2-.74-.46-1-.79-.3-.32-.5-.76-.61-1.3-.12-.56-.18-1.68-.18-3.3s.06-2.75.18-3.33c.1-.52.3-.94.62-1.28.25-.31.58-.58.99-.79Z"/>
          <path class="cls-9" d="M303.25,222.43c-1.21-1.95-3.04-2.94-5.44-2.96h-6.26v17.33h6.08c1.33,0,2.47-.29,3.39-.86.93-.53,1.66-1.22,2.18-2.05.19-.31.36-.61.5-.9.13-.3.23-.65.3-1.03.14-.73.2-2.02.2-3.83,0-1.7-.04-2.92-.13-3.62-.11-.72-.39-1.42-.82-2.08ZM294.67,222.39h2.85c1.23-.04,2.17.4,2.86,1.33.32.35.52.82.6,1.39.07.62.1,1.67.1,3.11s-.03,2.5-.1,3.04c-.07.5-.24.92-.51,1.26-.61.91-1.58,1.35-2.96,1.35h-2.84v-11.48Z"/>
          <polygon class="cls-9" points="311.67 236.8 323.14 236.8 323.14 233.87 314.79 233.87 314.79 229.46 321.92 229.46 321.92 226.67 314.79 226.67 314.79 222.39 323.14 222.39 323.14 219.47 311.67 219.47 311.67 236.8"/>
          <path class="cls-9" d="M344.91,219.47l-6.42,17.33h3.32l1.32-3.76h6.12l1.33,3.76h3.3l-6.42-17.33h-2.54ZM348.32,230.26h-4.27l2.13-6.33,2.13,6.33Z"/>
          <polygon class="cls-9" points="356.37 222.26 361.07 222.26 361.07 236.8 364.19 236.8 364.19 222.26 368.89 222.26 368.89 219.47 356.37 219.47 356.37 222.26"/>
          <polygon class="cls-9" points="375.05 236.8 386.52 236.8 386.52 233.87 378.17 233.87 378.17 229.46 385.3 229.46 385.3 226.67 378.17 226.67 378.17 222.39 386.52 222.39 386.52 219.47 375.05 219.47 375.05 236.8"/>
          <polygon class="cls-9" points="403.58 230.86 396.19 219.47 393.33 219.47 393.33 236.8 396.46 236.8 396.46 225.41 403.84 236.8 406.71 236.8 406.71 219.47 403.58 219.47 403.58 230.86"/>
          <path class="cls-9" d="M423.63,231.73c-.68,1.44-1.67,2.15-3.03,2.15-.56,0-1.05-.12-1.46-.35-.41-.2-.74-.46-1-.79-.3-.32-.5-.76-.61-1.3-.12-.56-.18-1.68-.18-3.3s.06-2.75.18-3.33c.1-.52.3-.94.6-1.27v-.02c.26-.31.6-.58,1.01-.79.4-.2.89-.31,1.45-.33.77.01,1.43.23,1.95.64.52.44.88.98,1.07,1.61l.06.19h3.27l-.06-.31c-.28-1.45-.98-2.69-2.06-3.68-1.09-.98-2.5-1.49-4.22-1.51-1.39.02-2.58.35-3.51.99-.95.63-1.65,1.36-2.07,2.15-.28.43-.48,1-.61,1.7-.12.68-.18,1.98-.18,3.96s.06,3.24.18,3.94c.07.38.15.7.25.96.1.23.22.48.35.74.43.81,1.14,1.54,2.08,2.14.94.64,2.12.98,3.52,1.01,1.54,0,2.9-.44,4.03-1.3,1.1-.87,1.86-2.13,2.24-3.73l.08-.33h-3.25l-.07.15Z"/>
          <rect class="cls-9" x="433.08" y="219.47" width="3.12" height="17.33"/>
          <path class="cls-9" d="M455.34,222.48c-.42-.81-1.1-1.53-2.03-2.16-.95-.64-2.14-.97-3.56-.99-1.39.02-2.58.35-3.51.99-.95.63-1.65,1.35-2.07,2.15-.28.43-.48,1.01-.61,1.7-.12.68-.18,1.98-.18,3.97s.06,3.24.18,3.94c.07.38.15.7.25.96.1.23.22.48.35.74.43.81,1.14,1.54,2.08,2.14.94.64,2.12.98,3.52,1.01,1.41-.03,2.6-.37,3.54-1.01.93-.61,1.62-1.34,2.02-2.12.31-.44.53-1.02.64-1.74.1-.7.16-1.98.16-3.93s-.05-3.28-.16-3.96c-.11-.69-.33-1.26-.63-1.7ZM448.3,222.72c.4-.2.89-.31,1.45-.33.58.01,1.08.13,1.49.33.4.21.71.48.97.81.3.33.51.75.63,1.27.11.58.17,1.7.17,3.33s-.06,2.74-.17,3.31c-.12.53-.33.97-.65,1.32-.23.31-.55.57-.95.77-.41.23-.91.35-1.48.35s-1.05-.12-1.46-.35c-.41-.2-.74-.46-1-.79-.3-.32-.5-.76-.61-1.3-.12-.56-.18-1.68-.18-3.3s.06-2.75.18-3.33c.1-.52.3-.94.62-1.28.25-.31.58-.58.99-.79Z"/>
          <polygon class="cls-9" points="454.23 215.21 450.23 215.21 447.68 219.17 450.29 219.17 454.23 215.21"/>
          <polygon class="cls-9" points="473.83 230.86 466.43 219.47 463.58 219.47 463.58 236.8 466.7 236.8 466.7 225.41 474.09 236.8 476.95 236.8 476.95 219.47 473.83 219.47 473.83 230.86"/>
          <path class="cls-9" d="M505.96,220.7c-.67-.52-1.34-.86-2.01-1.04-.64-.13-1.32-.19-2-.19h-6.47v17.33h3.12v-6.56h3.69c1.83-.03,3.25-.62,4.22-1.75.93-1.07,1.41-2.27,1.41-3.57,0-.96-.19-1.81-.55-2.51-.35-.73-.82-1.31-1.4-1.71ZM504.78,224.85c0,.62-.21,1.17-.63,1.68-.44.51-1.09.77-1.98.79h-3.58v-4.92h3.5c.65-.01,1.23.13,1.72.44.31.18.55.41.72.71.17.35.26.79.26,1.31Z"/>
          <path class="cls-9" d="M521.32,226.69h0c-.81-.1-1.46-.19-1.91-.26-.79-.14-1.36-.4-1.7-.76-.34-.34-.5-.71-.5-1.12.01-.73.26-1.25.75-1.61.48-.36,1.1-.54,1.84-.54,1.49.03,2.87.45,4.11,1.25l.22.14,1.74-2.52-.21-.15c-1.61-1.14-3.53-1.74-5.71-1.78-1.83.02-3.27.5-4.27,1.43-1.05.95-1.58,2.21-1.58,3.75,0,1.29.42,2.39,1.26,3.29.8.87,1.99,1.44,3.52,1.69.82.12,1.58.22,2.26.31,1.37.23,2.03.88,2.01,1.99-.03,1.37-1.05,2.05-3.12,2.08-1.81-.01-3.39-.56-4.7-1.62l-.2-.16-2.05,2.31.21.17c1.86,1.56,4.12,2.35,6.71,2.35,4.07-.05,6.18-1.78,6.27-5.15,0-1.25-.4-2.36-1.2-3.31-.81-.96-2.06-1.56-3.73-1.79Z"/>
          <rect class="cls-9" x="533.39" y="219.47" width="3.12" height="17.33"/>
          <path class="cls-9" d="M553.09,231.73c-.68,1.44-1.67,2.15-3.03,2.15-.56,0-1.05-.12-1.46-.35-.41-.2-.74-.46-1-.79-.3-.32-.5-.76-.61-1.3-.12-.56-.18-1.68-.18-3.3s.06-2.75.18-3.33c.1-.52.3-.94.6-1.27v-.02c.26-.31.6-.58,1.01-.79.4-.2.89-.31,1.45-.33.77.01,1.43.23,1.95.64.52.44.88.98,1.07,1.61l.06.19h3.27l-.06-.31c-.28-1.45-.98-2.69-2.06-3.68-1.09-.98-2.5-1.49-4.22-1.51-1.39.02-2.58.35-3.51.99-.95.63-1.65,1.36-2.07,2.15-.28.43-.48,1-.61,1.7-.12.68-.18,1.98-.18,3.96s.06,3.24.18,3.94c.07.38.15.7.25.96.1.23.22.48.35.74.43.81,1.14,1.54,2.08,2.14.94.64,2.12.98,3.52,1.01,1.54,0,2.9-.44,4.03-1.3,1.1-.87,1.86-2.13,2.24-3.73l.08-.33h-3.25l-.07.15Z"/>
          <path class="cls-9" d="M573.93,222.48c-.42-.81-1.1-1.53-2.03-2.16-.95-.64-2.14-.97-3.56-.99-1.39.02-2.58.35-3.51.99-.95.63-1.65,1.35-2.07,2.15-.27.43-.48,1.01-.61,1.7-.12.68-.18,1.98-.18,3.97s.06,3.24.18,3.94c.07.38.15.7.25.96.1.23.22.48.35.74.43.81,1.14,1.53,2.08,2.14.94.64,2.12.98,3.52,1.01,1.41-.03,2.6-.37,3.54-1.01.93-.61,1.62-1.34,2.02-2.12.31-.44.53-1.02.65-1.74.1-.69.16-1.98.16-3.93s-.05-3.28-.16-3.96c-.11-.69-.33-1.26-.63-1.7ZM566.88,222.72c.4-.2.89-.31,1.45-.33.58.01,1.08.13,1.49.33.4.21.71.48.97.81.3.32.51.75.63,1.27.11.58.17,1.7.17,3.33s-.06,2.74-.17,3.31c-.12.53-.33.97-.65,1.32-.23.31-.55.57-.95.77-.41.23-.91.35-1.48.35s-1.05-.12-1.46-.35c-.41-.2-.74-.46-1-.79-.3-.32-.5-.76-.61-1.3-.12-.56-.18-1.68-.18-3.3s.06-2.75.18-3.33c.1-.52.3-.94.62-1.28.25-.31.58-.58.99-.79Z"/>
          <polygon class="cls-9" points="585.29 219.47 582.17 219.47 582.17 236.8 593.64 236.8 593.64 233.87 585.29 233.87 585.29 219.47"/>
          <polygon class="cls-9" points="610.73 215.21 606.72 215.21 604.17 219.17 606.79 219.17 610.73 215.21"/>
          <path class="cls-9" d="M611.83,222.48c-.42-.81-1.1-1.53-2.03-2.16-.95-.64-2.14-.97-3.56-.99-1.39.02-2.58.35-3.51.99-.95.63-1.65,1.35-2.07,2.15-.27.43-.48,1.01-.61,1.7-.12.68-.18,1.98-.18,3.97s.06,3.24.18,3.94c.07.38.15.7.25.96.1.23.22.48.35.74.43.81,1.14,1.53,2.08,2.14.94.64,2.12.98,3.52,1.01,1.41-.03,2.6-.37,3.54-1.01.93-.61,1.62-1.34,2.02-2.12.31-.44.53-1.02.65-1.74.1-.69.16-1.98.16-3.93s-.05-3.28-.16-3.96c-.11-.69-.33-1.26-.63-1.7ZM604.79,222.72c.4-.2.89-.31,1.45-.33.58.01,1.08.13,1.49.33.4.21.71.48.97.81.3.32.51.75.63,1.27.11.58.17,1.7.17,3.33s-.06,2.74-.17,3.31c-.12.53-.33.97-.65,1.32-.23.31-.55.57-.95.77-.41.23-.91.35-1.48.35s-1.05-.12-1.46-.35c-.41-.2-.74-.46-1-.79-.3-.32-.5-.76-.61-1.3-.12-.56-.18-1.68-.18-3.3s.06-2.75.18-3.33c.1-.52.3-.94.62-1.28.25-.31.58-.58.99-.79Z"/>
          <path class="cls-9" d="M625.63,229.95h3.5v.61c-.01.99-.32,1.77-.94,2.37-.61.63-1.37.94-2.32.94-.56,0-1.05-.12-1.46-.35-.41-.2-.74-.46-1-.79-.3-.32-.5-.76-.61-1.3-.12-.56-.18-1.68-.18-3.3s.06-2.75.18-3.33c.1-.52.3-.94.62-1.28.25-.31.58-.58.99-.79.4-.2.89-.31,1.45-.33.77.01,1.43.23,1.95.64.52.44.88.99,1.07,1.61l.06.19h3.27l-.06-.31c-.28-1.46-.97-2.69-2.05-3.68-1.09-.99-2.5-1.49-4.22-1.51-1.39.02-2.58.35-3.51.99-.95.63-1.65,1.36-2.07,2.15-.27.43-.48,1-.61,1.7-.12.68-.18,1.98-.18,3.96s.06,3.24.18,3.94c.07.38.15.7.25.96.1.23.22.48.35.74.43.81,1.14,1.53,2.08,2.14.94.64,2.12.98,3.52,1.01,1.81-.03,3.33-.64,4.53-1.81,1.19-1.18,1.81-2.66,1.84-4.41v-3.68h-6.62v2.92Z"/>
          <rect class="cls-9" x="639.69" y="219.47" width="3.12" height="17.33"/>
          <path class="cls-9" d="M659.4,231.73c-.68,1.44-1.67,2.15-3.03,2.15-.56,0-1.05-.12-1.46-.35-.41-.2-.74-.46-1-.79-.3-.32-.5-.76-.61-1.3-.12-.56-.18-1.68-.18-3.3s.06-2.75.18-3.33c.1-.52.3-.94.6-1.27v-.02c.26-.32.6-.58,1.01-.79.4-.2.89-.31,1.45-.33.77.01,1.43.23,1.95.64.52.44.88.98,1.07,1.61l.06.19h3.27l-.06-.31c-.28-1.45-.98-2.69-2.06-3.68-1.09-.98-2.5-1.49-4.22-1.51-1.39.02-2.58.35-3.51.99-.95.63-1.65,1.36-2.07,2.15-.27.43-.48,1-.61,1.7-.12.68-.18,1.98-.18,3.96s.06,3.24.18,3.94c.07.38.15.7.25.96.1.23.22.48.35.74.43.81,1.14,1.54,2.08,2.14.94.64,2.12.98,3.52,1.01,1.54,0,2.9-.44,4.03-1.3,1.1-.87,1.85-2.13,2.24-3.73l.08-.33h-3.25l-.07.15Z"/>
          <path class="cls-9" d="M675.92,219.47h-2.54l-6.42,17.33h3.32l1.32-3.76h6.12l1.33,3.76h3.3l-6.42-17.33ZM676.79,230.26h-4.27l2.13-6.33,2.13,6.33Z"/>
        </g>
        <g>
          <path class="cls-11" d="M255.96,173.67v-4.9l6.52-.54,2-1.57v-53.53l-1.67-1.42-7.28-.49v-4.9h29.82c10.53,0,18.19,1.62,22.97,4.85,4.78,3.24,7.17,8.37,7.17,15.39s-2.53,12.54-7.6,16.45c-5.07,3.91-12.17,5.86-21.3,5.86-.86,0-1.92-.02-3.18-.07-1.26-.05-2.71-.12-4.37-.22v18.09l1.67,1.57,7.87.54v4.9h-32.62ZM279.04,142.84c.07,0,.2.02.38.05,1.65.1,2.86.15,3.61.15,5.72,0,10.02-1.34,12.91-4.02,2.89-2.68,4.34-6.68,4.34-12.01,0-4.8-1.33-8.48-3.99-11.03-2.66-2.55-6.49-3.82-11.49-3.82h-5.77v30.69Z"/>
          <path class="cls-7" d="M335.16,171.46v-18.19h8.36l1.78,12.06,1.46,1.52c1.62.46,3.23.8,4.83,1.03,1.6.23,3.23.34,4.88.34,4.31,0,7.76-.87,10.35-2.6,2.59-1.73,3.88-4.04,3.88-6.91,0-2.55-.91-4.81-2.72-6.79-1.82-1.98-4.84-3.93-9.09-5.86-.68-.33-1.73-.78-3.13-1.37-5.03-2.12-8.81-4.15-11.32-6.08-2.48-1.89-4.39-4.04-5.72-6.42-1.33-2.38-2-4.82-2-7.3,0-5.75,2.42-10.49,7.25-14.22,4.83-3.73,11.1-5.59,18.79-5.59,3.34,0,6.74.29,10.19.86,3.45.57,6.97,1.43,10.57,2.57v16.27h-7.98l-1.83-10.44-1.56-1.42c-1.04-.49-2.23-.85-3.56-1.08-1.33-.23-2.84-.34-4.53-.34-3.92,0-7.06.88-9.44,2.65-2.37,1.76-3.56,4.07-3.56,6.91,0,2.09.67,3.98,2.02,5.66,1.35,1.68,3.66,3.41,6.93,5.17.79.46,2.99,1.41,6.61,2.87,3.61,1.45,6.66,2.9,9.14,4.34,3.2,1.86,5.66,4.1,7.39,6.72,1.73,2.62,2.59,5.41,2.59,8.38,0,6.14-2.68,11.11-8.03,14.9-5.36,3.79-12.44,5.69-21.24,5.69-3.59,0-7.21-.29-10.84-.86-3.63-.57-7.12-1.4-10.46-2.48Z"/>
          <path class="cls-6" d="M405.68,173.67v-4.9l7.33-.54,1.83-1.57v-53.53l-1.83-1.42-7.33-.49v-4.9h33.05v4.9l-7.39.49-1.78,1.42v53.53l1.78,1.57,7.39.54v4.9h-33.05Z"/>
          <path class="cls-5" d="M502.67,173.87c.18,4.02,1.47,6.97,3.88,8.85,2.41,1.88,6.07,2.82,11,2.82,1.58,0,3.22-.11,4.91-.32,1.69-.21,3.45-.51,5.28-.91v5.15c-3.59.69-6.89,1.21-9.89,1.57-3,.36-5.78.54-8.33.54-7.66,0-13.31-1.38-16.96-4.14-3.65-2.76-5.47-7.05-5.47-12.87v-.29c-9.24-1.31-16.59-5.06-22.05-11.25-5.46-6.19-8.2-13.88-8.2-23.06,0-3.86.53-7.52,1.59-10.98,1.06-3.46,2.67-6.73,4.83-9.8,3.2-4.51,7.5-8.05,12.91-10.61,5.41-2.57,11.3-3.85,17.66-3.85,5,0,9.54.64,13.64,1.91,4.1,1.27,7.8,3.22,11.11,5.83,4.35,3.4,7.68,7.49,10,12.28,2.32,4.79,3.48,9.99,3.48,15.61,0,8.73-2.68,16.14-8.03,22.25-5.36,6.11-12.47,9.87-21.35,11.27ZM473.5,139.65c0,8.73,1.97,15.74,5.9,21.05,3.94,5.31,9.07,7.97,15.39,7.97s11.09-2.61,14.83-7.82c3.74-5.21,5.61-12.15,5.61-20.81s-1.94-15.71-5.82-20.96c-3.88-5.24-9-7.87-15.37-7.87s-11.15,2.58-14.91,7.75c-3.76,5.16-5.63,12.06-5.63,20.69Z"/>
          <path class="cls-4" d="M548.81,106.32h31.71v4.9l-6.85.49-1.56,1.42v35.15c0,6.7,1.4,11.49,4.21,14.36,2.8,2.88,7.4,4.31,13.8,4.31,5.9,0,10.16-1.53,12.81-4.58,2.64-3.06,3.96-8.06,3.96-15.02v-33.82l-1.67-1.72-7.06-.59v-4.9h25.07v4.9l-6.74.59-1.51,1.72v34.85c0,9.31-2.3,16.06-6.9,20.24-4.6,4.18-12.02,6.27-22.27,6.27-5.36,0-10.06-.71-14.1-2.13-4.04-1.42-7.22-3.46-9.52-6.1-1.76-2.09-3.01-4.49-3.75-7.18-.74-2.7-1.11-6.56-1.11-11.59v-34.75l-1.56-1.42-6.96-.49v-4.9Z"/>
          <path class="cls-3" d="M638.8,173.67v-4.9l7.33-.54,1.83-1.57v-53.53l-1.83-1.42-7.33-.49v-4.9h33.05v4.9l-7.39.49-1.78,1.42v53.53l1.78,1.57,7.39.54v4.9h-33.05Z"/>
          <path class="cls-2" d="M692.17,171.46v-18.19h8.36l1.78,12.06,1.46,1.52c1.62.46,3.23.8,4.83,1.03,1.6.23,3.23.34,4.88.34,4.31,0,7.76-.87,10.35-2.6,2.59-1.73,3.88-4.04,3.88-6.91,0-2.55-.91-4.81-2.72-6.79-1.82-1.98-4.84-3.93-9.09-5.86-.68-.33-1.73-.78-3.13-1.37-5.03-2.12-8.81-4.15-11.32-6.08-2.48-1.89-4.39-4.04-5.72-6.42-1.33-2.38-2-4.82-2-7.3,0-5.75,2.42-10.49,7.25-14.22,4.83-3.73,11.1-5.59,18.79-5.59,3.34,0,6.74.29,10.19.86,3.45.57,6.97,1.43,10.57,2.57v16.27h-7.98l-1.83-10.44-1.56-1.42c-1.04-.49-2.23-.85-3.56-1.08-1.33-.23-2.84-.34-4.53-.34-3.92,0-7.06.88-9.44,2.65-2.37,1.76-3.56,4.07-3.56,6.91,0,2.09.67,3.98,2.02,5.66,1.35,1.68,3.66,3.41,6.93,5.17.79.46,2.99,1.41,6.61,2.87,3.61,1.45,6.66,2.9,9.14,4.34,3.2,1.86,5.66,4.1,7.39,6.72,1.73,2.62,2.59,5.41,2.59,8.38,0,6.14-2.68,11.11-8.03,14.9-5.36,3.79-12.44,5.69-21.24,5.69-3.6,0-7.21-.29-10.84-.86-3.63-.57-7.12-1.4-10.46-2.48Z"/>
        </g>
        <g>
          <path class="cls-1" d="M160.94,193.45c-29.59,0-53.66-24.07-53.66-53.66s24.07-53.66,53.66-53.66,53.66,24.07,53.66,53.66-24.07,53.66-53.66,53.66Z"/>
          <path class="cls-8" d="M197.89,158.34h-13.65c3.75-5.02,5.78-11.06,5.78-17.36,0-16.02-13.04-29.06-29.06-29.06s-29.06,13.04-29.06,29.06c0,6.3,2.03,12.34,5.78,17.36h-13.69c-2.57,0-4.66,2.09-4.66,4.66s2.09,4.66,4.66,4.66h26.44s.08,0,.12,0c.09,0,.17,0,.25-.01.06,0,.13-.01.2-.02.08-.01.16-.02.24-.04.08-.01.15-.03.21-.04.07-.02.14-.03.21-.05.08-.02.16-.05.24-.07.05-.02.1-.04.18-.07.08-.03.16-.06.23-.1.06-.03.12-.05.19-.09.07-.04.14-.07.21-.11.07-.04.14-.08.21-.12.06-.04.11-.07.17-.11.07-.05.14-.1.22-.17.04-.03.09-.07.13-.1.07-.06.14-.12.23-.21.03-.03.07-.07.1-.1.06-.06.12-.13.18-.2.04-.05.08-.1.13-.15.05-.06.1-.13.14-.19.04-.06.09-.13.14-.2.04-.06.07-.11.1-.17.04-.07.08-.14.12-.22l.05-.09s.04-.08.06-.12c.04-.08.07-.16.1-.23.02-.06.04-.12.07-.18.03-.08.05-.16.07-.24.02-.07.04-.14.06-.22.02-.07.03-.14.04-.21.01-.08.03-.17.04-.27,0-.06.01-.12.02-.18,0-.09.01-.18.01-.25v-.12s0-.08,0-.12c0-.08,0-.17-.01-.25,0-.07-.01-.14-.02-.2,0-.08-.02-.16-.04-.23-.01-.08-.03-.15-.05-.24-.01-.06-.03-.12-.05-.18-.02-.09-.05-.17-.08-.25-.02-.05-.04-.1-.06-.17-.03-.09-.07-.17-.1-.24-.03-.06-.05-.12-.08-.17-.04-.08-.08-.15-.12-.23-.04-.06-.07-.12-.12-.2-.04-.06-.07-.11-.11-.16-.05-.07-.1-.13-.16-.21-.04-.05-.07-.09-.11-.14-.06-.07-.12-.13-.18-.19-.04-.04-.08-.09-.12-.13-.06-.06-.13-.12-.19-.18-.05-.04-.1-.09-.15-.13-.06-.05-.13-.1-.19-.14-.07-.05-.13-.09-.21-.14-.05-.03-.11-.07-.16-.1-.07-.04-.15-.08-.22-.12l-.11-.06c-6.82-3.27-11.22-10.26-11.22-17.82,0-10.89,8.86-19.75,19.75-19.75s19.75,8.86,19.75,19.75c0,7.44-4.31,14.38-10.98,17.7-1.75.7-2.92,2.43-2.92,4.32,0,2.54,2.05,4.62,4.61,4.66h.09s26.39,0,26.39,0c2.57,0,4.66-2.09,4.66-4.66s-2.09-4.66-4.66-4.66Z"/>
        </g>
      </g>
    </g>
  </g>
</svg>