<svg xmlns="http://www.w3.org/2000/svg" viewBox="0 0 2000 579.8" style="enable-background:new 0 0 2000 579.8" xml:space="preserve"><path d="M541.2 0H41.4C18.8 0 0 18.8 0 41.4v496.9c0 22.6 18.8 41.4 41.4 41.4h499.8c22.6 0 41.4-18.8 41.4-41.4V41.4c0-23.5-18.8-41.4-41.4-41.4zm-176 435.8c-50.8 50.8-131.8 52.7-185.4 6.6l-.9-.9c-2.8-2.8-3.8-8.5 0-12.2l180.7-179.8c3.8-2.8 8.5-2.8 12.2 0 47 54.5 45.1 135.4-6.6 186.3zm37.6-287.1L222.1 328.5c-3.8 2.8-8.5 2.8-12.2 0-47.1-53.6-45.2-134.6 5.6-185.4s131.8-52.7 185.4-6.6c0 0 .9 0 .9.9 4.8 2.8 4.8 8.5 1 11.3z"/><path d="M836.7 261.6c-25.4-10.4-41.4-16.9-41.4-32 0-12.2 9.4-23.5 31.1-23.5 13.2 0 24.5 5.6 32.9 16.9 5.6 6.6 11.3 10.4 17.9 10.4 13.2 0 23.5-10.4 23.5-22.6 0-4.7-.9-9.4-3.8-12.2-14.1-21.6-43.3-36.7-70.6-36.7-37.6 0-76.2 23.5-76.2 68.7 0 46.1 37.6 61.2 68.7 72.5 24.5 9.4 46.1 17.9 46.1 37.6 0 15.1-14.1 30.1-40.5 30.1-8.5 0-23.5-1.9-33.9-14.1-5.6-6.6-12.2-9.4-17.9-9.4-12.2 0-23.5 10.4-23.5 22.6 0 4.7 1.9 9.4 4.7 13.2 14.1 21.6 46.1 32 70.6 32 41.4 0 86.6-26.4 86.6-74.4-.9-50.8-41.4-66.8-74.3-79.1zm933.7-100.7h-.9c-45.2 0-80.9 35.8-80.9 80v278.6c0 12.2 10.4 22.6 22.6 22.6 12.2 0 22.6-10.4 22.6-22.6V403.8c8.5 7.5 22.6 11.3 35.8 11.3h.9c45.2 0 79.1-38.6 79.1-82.8v-93.2c-.2-44.3-34.1-78.2-79.2-78.2zm35.7 173.2c0 24.5-16 34.8-34.8 34.8h-.9c-19.8 0-34.8-10.4-34.8-34.8v-93.2c0-18.8 16-34.8 34.8-34.8h.9c19.8 0 34.8 15.1 34.8 34.8v93.2zm-452.7-173.2h-.9c-22.6 0-42.4 9.4-56.5 23.5-14.1-14.1-34.8-23.5-56.5-23.5h-.9c-43.3 0-79.1 34.8-79.1 79.1v153.4c.9 12.2 10.4 21.6 22.6 21.6s21.6-9.4 22.6-21.6V240c0-18.8 15.1-33.9 33.9-33.9h.9c18.8 0 32.9 14.1 33.9 32.9v154.4c1.1 11.1 9 21.6 21.6 21.6 12.2 0 21.6-9.4 22.6-21.6V238.1c.9-17.9 16-32.9 33.9-32.9h.9c18.8 0 33.9 15.1 33.9 33.9v154.4c.9 12.2 10.4 21.6 22.6 21.6 12.2 0 21.6-9.4 22.6-21.6V240c1-43.3-34.8-79.1-78.1-79.1zm-267.3 0c-12.2 0-21.6 9.4-22.6 21.6V336c0 18.8-15.1 33.9-34.8 33.9h-.9c-18.8 0-34.8-15.1-34.8-33.9V181.6c-.9-12.2-10.4-21.6-22.6-21.6-12.2 0-21.6 9.4-22.6 21.6V335c0 43.3 35.8 79.1 80 79.1h.9c44.2 0 80-35.8 80-79.1V182.6c0-12.2-10.3-21.7-22.6-21.7zm534.6 0c-12.2 0-21.6 9.4-22.6 21.6V336c0 18.8-15.1 33.9-34.8 33.9h-.9c-18.8 0-34.8-15.1-34.8-33.9V181.6c-.9-12.2-10.4-21.6-22.6-21.6-12.2 0-21.6 9.4-22.6 21.6V335c0 43.3 35.8 79.1 80 79.1h.9c44.2 0 80-35.8 80-79.1V182.6c-.9-12.2-10.4-21.7-22.6-21.7z" style="fill-rule:evenodd;clip-rule:evenodd"/><path d="M1959.5 208c5.6-.9 9.4-5.6 9.4-11.3 0-7.5-5.6-12.2-14.1-12.2h-11.3c-2.8 0-4.7 1.9-4.7 4.7v31.1c0 2.8 1.9 4.7 4.7 4.7s4.7-1.9 4.7-4.7V209l11.3 14.1c.9 1.9 1.9 1.9 4.7 1.9 3.8 0 4.7-2.8 4.7-4.7s-.9-2.8-1.9-3.8l-7.5-8.5zm-3.7-6.6h-5.6V192h5.6c2.8 0 4.7 1.9 4.7 4.7 0 1.9-1.9 4.7-4.7 4.7zm-1-40.5c-24.5 0-45.2 19.8-45.2 45.2 0 24.5 19.8 45.2 45.2 45.2 24.5 0 45.2-19.8 45.2-45.2 0-24.5-19.8-45.2-45.2-45.2zm0 79.1c-18.8 0-33.9-15.1-33.9-33.9s15.1-33.9 33.9-33.9 33.9 15.1 33.9 33.9-15.1 33.9-33.9 33.9z"/></svg>